PathFileType	4	(X/Y/Z)	SUBJ24_2_walk_RCNL2025.trc
DataRate	CameraRate	NumFrames	NumMarkers	Units	OrigDataRate	OrigDataStartFrame	OrigNumFrames
100	100	4	25	mm	100	200	399
Frame#	Time	R_Shoulder			L_Shoulder			C7			J_Notch			R_Elbow			L_Elbow			R_Wrist			L_Wrist			R_Asis			L_Asis			Sacral			Thoracic			Sternum			R_Thigh_Lateral			R_Knee_Lateral			R_Shank_Lateral			R_Ankle_Lateral			R_Heel			R_Toe			L_Thigh_Lateral			L_Knee_Lateral			L_Shank_Lateral			L_Ankle_Lateral			L_Heel			L_Toe		
		X1	Y1	Z1	X2	Y2	Z2	X3	Y3	Z3	X4	Y4	Z4	X5	Y5	Z5	X6	Y6	Z6	X7	Y7	Z7	X8	Y8	Z8	X9	Y9	Z9	X10	Y10	Z10	X11	Y11	Z11	X12	Y12	Z12	X13	Y13	Z13	X14	Y14	Z14	X15	Y15	Z15	X16	Y16	Z16	X17	Y17	Z17	X18	Y18	Z18	X19	Y19	Z19	X20	Y20	Z20	X21	Y21	Z21	X22	Y22	Z22	X23	Y23	Z23	X24	Y24	Z24	X25	Y25	Z25
200	1.99000000	-1024.615356	1275.781494	327.417572	-1032.450073	1304.870850	-16.349007	-1115.731323	1352.788574	159.291962	-977.806030	1266.150757	151.555023	-1087.383545	990.945923	401.324463	-1017.470886	1023.329651	-126.774422	-1056.052795	756.031891	394.637650	-834.034393	873.207245	-115.838089	-982.246216	862.819641	308.188599	-1012.401978	839.282959	-17.066771	-1171.971802	893.662292	161.117416	-1176.214722	1086.393066	141.650772	-901.873413	1049.119751	137.945587	-972.832886	546.974243	342.117035	-876.754211	438.529724	256.725250	-867.558838	294.253052	306.219116	-874.955139	61.042450	236.928177	-921.472168	33.965046	178.177048	-748.822144	39.128181	230.901932	-1099.434692	537.730408	-41.054329	-1106.187378	408.282776	9.239539	-1217.709473	300.367249	-41.698032	-1381.945435	142.396103	22.349800	-1431.207642	154.407654	79.856483	-1311.932861	44.986198	52.330742
201	2.00000000	-1011.983582	1277.289185	329.194275	-1018.869385	1306.981567	-14.350830	-1102.855103	1354.420532	161.067230	-964.808777	1267.818970	153.682144	-1071.764771	991.905823	402.884369	-1008.304321	1024.808960	-124.810013	-1038.056580	757.377228	396.120163	-829.355865	869.273529	-114.418186	-970.916138	865.339111	310.664398	-998.131226	839.835388	-14.009966	-1159.575928	895.369690	161.994080	-1163.570190	1088.163330	142.492981	-889.165344	1050.670288	140.128220	-962.900024	549.072632	344.573212	-869.532532	438.549835	258.164673	-863.180420	293.914978	307.178711	-874.365540	61.049301	236.806793	-921.192566	34.171440	178.142212	-748.421631	38.739311	230.826462	-1080.138306	537.033875	-40.030216	-1083.828369	407.655334	9.344568	-1198.124512	304.325287	-41.623009	-1367.118530	152.117737	22.668299	-1414.559082	166.279495	81.052719	-1303.338135	48.783028	51.048641
202	2.01000000	-999.394714	1278.950073	330.837585	-1005.476318	1309.178833	-12.459327	-1090.105103	1356.171265	162.773712	-951.968567	1269.554565	155.642029	-1056.013672	993.053467	404.496124	-999.181274	1026.426758	-122.871208	-1019.621185	758.975159	397.525238	-825.250305	865.215881	-113.026638	-959.762512	867.719177	313.048279	-984.253967	840.687622	-11.098541	-1147.393188	897.220703	163.036850	-1151.093506	1090.092407	143.402435	-876.689026	1052.265381	142.167984	-954.346313	550.839172	346.733582	-863.440063	438.358368	259.737030	-859.954773	293.451965	308.253235	-873.986511	61.028160	236.703842	-921.004883	34.286827	178.089874	-748.177002	38.549099	230.803177	-1060.507324	536.652222	-39.032501	-1060.801392	407.437775	9.499592	-1177.581909	308.656860	-41.316441	-1350.737183	161.933624	23.483574	-1396.252441	177.488678	82.959991	-1292.274780	53.792389	49.166309
203	2.02000000	-986.808777	1280.700317	332.338776	-992.278320	1311.402710	-10.706800	-1077.473511	1358.025146	164.405884	-939.302368	1271.328857	157.416122	-1040.150269	994.350098	406.158386	-990.082153	1028.117798	-120.967056	-1000.773468	760.795227	398.840652	-821.677704	861.070526	-111.666882	-948.741577	869.934448	315.306122	-970.861938	841.854919	-8.438497	-1135.430664	899.198364	164.250336	-1138.767578	1092.157471	144.426392	-864.429443	1053.879395	144.027527	-947.018188	552.151367	348.539001	-858.267029	438.028503	261.363800	-857.498840	292.933990	309.379517	-873.762268	60.984928	236.626556	-920.892883	34.347569	178.039780	-748.042847	38.467300	230.819275	-1040.651489	536.698792	-38.052593	-1037.278564	407.774261	9.725417	-1156.214111	313.340698	-40.718132	-1332.829590	171.538696	24.776781	-1376.410889	187.667572	85.540756	-1278.471924	59.774033	46.788464
